<?xml version="1.0" encoding="UTF-8"?>
<svg version="1.2" viewBox="0 0 4318 4318" xmlns="http://www.w3.org/2000/svg">
<style/>
<path d="m1942.3 334c96.2-166.7 336.8-166.7 433 0l391.5 678.2 499.8-204.6 222 542.2-210.2 86.1-135.9-332.1-261.1 106.9-114.6-198.5-1370.4 561 221.9 542.2 210.2-86.1-135.9-332 558.9-228.8 25 60.9 543.6 1328.1 24.9 60.9-271.1 111 86 210.2 603.1-246.9 271.1-110.9-86-210.2-332 135.9-593.5-1449.9 358.8-146.9 1256.3 2176c96.2 166.6-24 374.9-216.4 374.9h-3525c-192.4 0-312.6-208.3-216.4-374.9l651.2-1128.1c18.7 12.1 43.1 19.4 73.5 19.4 480.3 0 625.9 583.7 625.9 1002 0 100.9 75.6 141 126.3 141q4.7 0 9.4-0.5 5.6 0.7 11.3 0.7c50.7 0 131.2-30.6 135.7-137.4 13.6-322.5 166-650.8 490.2-724.4 59.6-13.5 138.6-69.8 116.4-160.6-18.2-74.6-80.5-90-126.8-85-303.3 32.9-502.9 252-612.6 520.7-65-421.4-293.3-772.8-722.5-795.5z" fill-rule="evenodd"/>
</svg>